Coordinates
version=1
nRows=60
nColumns=12
inDegrees=yes

Units are S.I. units (second, meters, Newtons, ...)
Angles are in degrees

endheader
time	SC_y	SC_z	SC_x	AC_y	AC_z	AC_x	GH_y	GH_z	GH_yy	EL_x	PS_y
       0.0              -20.82          2.823          8.469          50.11         -14.17         -19.78          163.4         -6.205         -96.28          14.69          88.14
   0.04654              -20.81          2.823           8.48          50.11         -14.17         -19.78          163.4         -6.204         -96.25           14.7          88.15
   0.09308              -20.81          2.822          8.491          50.11         -14.17         -19.78          163.4         -6.203         -96.21          14.71          88.16
    0.1396              -20.81          2.821          8.503          50.11         -14.16         -19.78          163.4         -6.202         -96.17          14.72          88.17
    0.1862              -20.81          2.821          8.516          50.11         -14.16         -19.78          163.3         -6.201         -96.13          14.74          88.18
    0.2327              -20.81           2.82           8.53           50.1         -14.16         -19.78          163.3           -6.2         -96.09          14.75          88.19
    0.2792              -20.81          2.819          8.544           50.1         -14.16         -19.77          163.3         -6.199         -96.05          14.76           88.2
    0.3258              -20.81          2.819           8.56           50.1         -14.16         -19.77          163.3         -6.198          -96.0          14.77          88.21
    0.3723               -20.8          2.818          8.576           50.1         -14.15         -19.77          163.3         -6.196         -95.95          14.79          88.23
    0.4188               -20.8          2.817          8.594          50.09         -14.15         -19.77          163.3         -6.195         -95.89          14.81          88.24
    0.4654               -20.8          2.816          8.613          50.09         -14.15         -19.76          163.3         -6.193         -95.83          14.82          88.26
    0.5119               -20.8          2.815          8.634          50.09         -14.15         -19.76          163.3         -6.191         -95.77          14.84          88.27
    0.5585              -20.79          2.814          8.656          50.08         -14.14         -19.76          163.3          -6.19          -95.7          14.86          88.29
     0.605              -20.79          2.812           8.68          50.08         -14.14         -19.75          163.3         -6.188         -95.63          14.88          88.31
    0.6515              -20.79          2.811          8.706          50.07         -14.14         -19.75          163.3         -6.185         -95.55          14.91          88.33
    0.6981              -20.78           2.81          8.735          50.07         -14.13         -19.75          163.3         -6.183         -95.46          14.93          88.36
    0.7446              -20.78          2.808          8.765          50.06         -14.13         -19.74          163.2          -6.18         -95.36          14.96          88.38
    0.7911              -20.78          2.806          8.799          50.06         -14.13         -19.74          163.2         -6.178         -95.26          14.99          88.41
    0.8377              -20.77          2.805          8.835          50.05         -14.12         -19.73          163.2         -6.175         -95.15          15.02          88.44
    0.8842              -20.77          2.803          8.875          50.05         -14.12         -19.72          163.2         -6.171         -95.02          15.06          88.47
    0.9308              -20.76            2.8          8.919          50.04         -14.11         -19.72          163.2         -6.168         -94.89           15.1          88.51
    0.9773              -20.76          2.798          8.968          50.03         -14.11         -19.71          163.1         -6.164         -94.74          15.14          88.55
     1.024              -20.75          2.795          9.021          50.02          -14.1          -19.7          163.1         -6.159         -94.57          15.19          88.59
      1.07              -20.74          2.792           9.08          50.01         -14.09         -19.69          163.1         -6.154         -94.39          15.25          88.64
     1.117              -20.74          2.789          9.146           50.0         -14.08         -19.68          163.1         -6.149         -94.19          15.31          88.69
     1.163              -20.73          2.785          9.219          49.99         -14.07         -19.67          163.0         -6.143         -93.96          15.37          88.75
      1.21              -20.72          2.781          9.301          49.97         -14.06         -19.66          163.0         -6.136         -93.71          15.45          88.82
     1.257              -20.71          2.776          9.394          49.96         -14.05         -19.65          163.0         -6.128         -93.42          15.53          88.89
     1.303               -20.7          2.771          9.498          49.94         -14.04         -19.63          162.9          -6.12          -93.1          15.62          88.98
      1.35              -20.68          2.765          9.617          49.92         -14.02         -19.62          162.9          -6.11         -92.73          15.73          89.08
     1.396              -20.67          2.758          9.752           49.9         -14.01          -19.6          162.8         -6.099         -92.32          15.85          89.19
     1.443              -20.65           2.75          9.907          49.87         -13.99         -19.57          162.7         -6.086         -91.84          15.99          89.31
     1.489              -20.63          2.741          10.09          49.84         -13.97         -19.55          162.6         -6.071         -91.28          16.16          89.46
     1.536               -20.6          2.731           10.3          49.81         -13.94         -19.52          162.5         -6.054         -90.64          16.35          89.63
     1.582              -20.58          2.718          10.54          49.77         -13.91         -19.48          162.4         -6.033         -89.88          16.57          89.83
     1.629              -20.54          2.704          10.83          49.72         -13.87         -19.44          162.3         -6.009          -89.0          16.83          90.06
     1.675               -20.5          2.687          11.17          49.66         -13.83         -19.39          162.1         -5.981         -87.94          17.14          90.34
     1.722              -20.45          2.666          11.58          49.59         -13.78         -19.33          162.0         -5.947         -86.68          17.51          90.67
     1.768               -20.4          2.641          12.07          49.51         -13.72         -19.26          161.7         -5.906         -85.15          17.95          91.08
     1.815              -20.33           2.61          12.68          49.41         -13.64         -19.17          161.5         -5.856         -83.28           18.5          91.57
     1.862              -20.24          2.573          13.42          49.28         -13.55         -19.06          161.1         -5.794         -80.97          19.18          92.18
     1.908              -20.13          2.525          14.36          49.12         -13.43         -18.92          160.7         -5.717         -78.09          20.02          92.94
     1.955               -20.0          2.466          15.53          48.93         -13.29         -18.75          160.2         -5.619         -74.47          21.08           93.9
     2.001              -19.82          2.391          17.02          48.67          -13.1         -18.53          159.5         -5.495         -69.86          22.43          95.11
     2.048               -19.6          2.294          18.93          48.35         -12.86         -18.25          158.6         -5.337         -63.97          24.16          96.67
     2.094              -19.32           2.17          21.38          47.94         -12.56         -17.89          157.5         -5.134          -56.4          26.38          98.67
     2.141              -18.95          2.012          24.51          47.41         -12.17         -17.43          156.1         -4.874         -46.73          29.21          101.2
     2.187               -18.5          1.813          28.44          46.75         -11.68         -16.85          154.3         -4.548         -34.58          32.77          104.4
     2.234              -17.94          1.571          33.24          45.95         -11.08         -16.15          152.2          -4.15         -19.77          37.11          108.3
      2.28              -17.29           1.29          38.79          45.01         -10.39         -15.33          149.6         -3.689         -2.599          42.14          112.9
     2.327               -16.6         0.9857          44.81           44.0         -9.641         -14.45          146.9         -3.189          15.99          47.59          117.8
     2.373               -15.9         0.6815          50.83          42.98         -8.891         -13.57          144.2          -2.69          34.58          53.03          122.7
      2.42              -15.25         0.4005          56.38          42.05         -8.199         -12.75          141.7         -2.229          51.75          58.06          127.2
     2.467              -14.69         0.1581          61.18          41.24         -7.602         -12.05          139.5         -1.831          66.56           62.4          131.1
     2.513              -14.24       -0.04078          65.11          40.58         -7.112         -11.47          137.7         -1.504          78.71          65.96          134.3
      2.56              -13.87         -0.199          68.24          40.05         -6.722         -11.01          136.3         -1.245          88.38          68.79          136.9
     2.606              -13.59        -0.3228          70.69          39.64         -6.417         -10.65          135.2         -1.041          95.94          71.01          138.9
     2.653              -13.37        -0.4193           72.6          39.32         -6.179         -10.37          134.3        -0.8829          101.8          72.74          140.4
     2.699               -13.2        -0.4947          74.09          39.07         -5.993         -10.15          133.6        -0.7591          106.4          74.09          141.6
     2.746              -13.06         -0.554          75.26          38.87         -5.847         -9.982          133.1        -0.6618          110.1          75.15          142.6
